<mxfile host="65bd71144e">
    <diagram name="Page-1" id="YI9PkLjTfyj3WVKVnAyu">
        <mxGraphModel dx="1024" dy="742" grid="1" gridSize="10" guides="1" tooltips="1" connect="1" arrows="1" fold="1" page="1" pageScale="1" pageWidth="850" pageHeight="1100" math="0" shadow="0">
            <root>
                <mxCell id="0"/>
                <mxCell id="1" parent="0"/>
                <mxCell id="zqM3rMFpBtw1R0VoXdJV-1" value="" style="rounded=0;whiteSpace=wrap;html=1;fontSize=13;" parent="1" vertex="1">
                    <mxGeometry x="10" y="10" width="900" height="600" as="geometry"/>
                </mxCell>
                <mxCell id="zqM3rMFpBtw1R0VoXdJV-2" value="&lt;font style=&quot;font-size: 20px;&quot;&gt;App&lt;br style=&quot;font-size: 20px;&quot;&gt;&lt;/font&gt;" style="text;strokeColor=none;align=center;fillColor=none;html=1;verticalAlign=middle;whiteSpace=wrap;rounded=0;fontSize=20;" parent="1" vertex="1">
                    <mxGeometry x="426.25" y="10" width="67.5" height="40" as="geometry"/>
                </mxCell>
                <mxCell id="zqM3rMFpBtw1R0VoXdJV-3" value="TimeBlock Control" style="rounded=0;whiteSpace=wrap;html=1;verticalAlign=top;fontSize=18;" parent="1" vertex="1">
                    <mxGeometry x="30" y="120" width="860" height="465" as="geometry"/>
                </mxCell>
                <mxCell id="zqM3rMFpBtw1R0VoXdJV-11" value="Time Block List" style="rounded=0;whiteSpace=wrap;html=1;spacingTop=10;verticalAlign=top;spacing=2;spacingBottom=0;horizontal=1;fontSize=16;" parent="1" vertex="1">
                    <mxGeometry x="340" y="260" width="220" height="300" as="geometry"/>
                </mxCell>
                <mxCell id="zqM3rMFpBtw1R0VoXdJV-5" value="Time Block" style="rounded=0;whiteSpace=wrap;html=1;spacingLeft=0;verticalAlign=top;" parent="1" vertex="1">
                    <mxGeometry x="370" y="310" width="160" height="60" as="geometry"/>
                </mxCell>
                <mxCell id="zqM3rMFpBtw1R0VoXdJV-6" value="Category" style="rounded=0;whiteSpace=wrap;html=1;fontSize=9;" parent="1" vertex="1">
                    <mxGeometry x="380" y="340" width="60" height="20" as="geometry"/>
                </mxCell>
                <mxCell id="zqM3rMFpBtw1R0VoXdJV-12" value="Daily Schedule" style="rounded=0;whiteSpace=wrap;html=1;fontSize=16;verticalAlign=top;spacingTop=10;" parent="1" vertex="1">
                    <mxGeometry x="600" y="260" width="220" height="300" as="geometry"/>
                </mxCell>
                <mxCell id="2" value="Time Block" style="rounded=0;whiteSpace=wrap;html=1;verticalAlign=top;" parent="1" vertex="1">
                    <mxGeometry x="370" y="380" width="160" height="60" as="geometry"/>
                </mxCell>
                <mxCell id="3" value="Time Block" style="rounded=0;whiteSpace=wrap;html=1;verticalAlign=top;" parent="1" vertex="1">
                    <mxGeometry x="370" y="450" width="160" height="60" as="geometry"/>
                </mxCell>
                <mxCell id="4" value="Category" style="rounded=0;whiteSpace=wrap;html=1;fontSize=9;" vertex="1" parent="1">
                    <mxGeometry x="380" y="410" width="60" height="20" as="geometry"/>
                </mxCell>
                <mxCell id="5" value="Category" style="rounded=0;whiteSpace=wrap;html=1;fontSize=9;" vertex="1" parent="1">
                    <mxGeometry x="380" y="480" width="60" height="20" as="geometry"/>
                </mxCell>
                <mxCell id="6" value="Planner NavBar: TimeBlocks / Day View / Week View" style="rounded=0;whiteSpace=wrap;html=1;fontSize=16;" vertex="1" parent="1">
                    <mxGeometry x="240" y="170" width="490" height="60" as="geometry"/>
                </mxCell>
                <mxCell id="8" value="Header" style="rounded=0;whiteSpace=wrap;html=1;fontSize=16;" vertex="1" parent="1">
                    <mxGeometry x="50" y="50" width="820" height="60" as="geometry"/>
                </mxCell>
                <mxCell id="9" value="&lt;font style=&quot;font-size: 13px;&quot;&gt;Sign In / Sign Out&lt;/font&gt;" style="rounded=0;whiteSpace=wrap;html=1;fontSize=16;" vertex="1" parent="1">
                    <mxGeometry x="60" y="65" width="130" height="30" as="geometry"/>
                </mxCell>
            </root>
        </mxGraphModel>
    </diagram>
</mxfile>